<?xml version="1.0" encoding="UTF-8" standalone="no"?>
<!-- Generator: Adobe Illustrator 15.0.0, SVG Export Plug-In . SVG Version: 6.00 Build 0)  -->

<svg
   xmlns:dc="http://purl.org/dc/elements/1.1/"
   xmlns:cc="http://creativecommons.org/ns#"
   xmlns:rdf="http://www.w3.org/1999/02/22-rdf-syntax-ns#"
   xmlns:svg="http://www.w3.org/2000/svg"
   xmlns="http://www.w3.org/2000/svg"
   xmlns:sodipodi="http://sodipodi.sourceforge.net/DTD/sodipodi-0.dtd"
   xmlns:inkscape="http://www.inkscape.org/namespaces/inkscape"
   version="1.1"
   x="0px"
   y="0px"
   width="30px"
   height="30px"
   viewBox="0 0 30 30"
   enable-background="new 0 0 30 30"
   xml:space="preserve"
   id="svg2"
   inkscape:version="0.48.3.1 r9886"
   sodipodi:docname="back.svg"><metadata
   id="metadata21"><rdf:RDF><cc:Work
       rdf:about=""><dc:format>image/svg+xml</dc:format><dc:type
         rdf:resource="http://purl.org/dc/dcmitype/StillImage" /><dc:title></dc:title></cc:Work></rdf:RDF></metadata><defs
   id="defs19">
	
	
	
	
	
</defs><sodipodi:namedview
   pagecolor="#ffffff"
   bordercolor="#666666"
   borderopacity="1"
   objecttolerance="10"
   gridtolerance="10"
   guidetolerance="10"
   inkscape:pageopacity="0"
   inkscape:pageshadow="2"
   inkscape:window-width="1046"
   inkscape:window-height="691"
   id="namedview17"
   showgrid="false"
   inkscape:zoom="7.8666667"
   inkscape:cx="14.745763"
   inkscape:cy="15"
   inkscape:window-x="66"
   inkscape:window-y="27"
   inkscape:window-maximized="0"
   inkscape:current-layer="svg2" />

<g
   id="g3003"><g
     id="DO_NOT_EDIT_-_BOUNDING_BOX">
	<rect
   height="30"
   width="30"
   fill="none"
   id="BOUNDING_BOX" />
</g><path
     d="m 25.792375,13.000751 h -15 l 5.293,-5.2930008 c 0.389,-0.391 0.389,-1.025 0,-1.414 l -1.586,-1.586 c -0.389,-0.391 -1.025,-0.391 -1.414,0 l -9.586,9.5860008 c -0.389,0.389 -0.389,1.023 0,1.413999 l 9.586,9.586 c 0.389,0.389 1.025,0.389 1.414,0 l 1.586,-1.586 c 0.389,-0.389 0.389,-1.025 0,-1.414 l -5.293,-5.293 h 15 c 0.55,0 1,-0.451 1,-1 v -1.999999 c 0,-0.551 -0.45,-1 -1,-1 z"
     id="path13"
     inkscape:connector-curvature="0"
     style="fill:#ffffff" /><rect
     width="30"
     height="30"
     id="rect15"
     x="0"
     y="0"
     style="fill:none" /></g>
</svg>