<?xml version="1.0" encoding="UTF-8" standalone="no"?>
<!-- Generator: Adobe Illustrator 15.0.0, SVG Export Plug-In . SVG Version: 6.00 Build 0)  -->

<svg
   xmlns:dc="http://purl.org/dc/elements/1.1/"
   xmlns:cc="http://creativecommons.org/ns#"
   xmlns:rdf="http://www.w3.org/1999/02/22-rdf-syntax-ns#"
   xmlns:svg="http://www.w3.org/2000/svg"
   xmlns="http://www.w3.org/2000/svg"
   xmlns:sodipodi="http://sodipodi.sourceforge.net/DTD/sodipodi-0.dtd"
   xmlns:inkscape="http://www.inkscape.org/namespaces/inkscape"
   version="1.1"
   x="0px"
   y="0px"
   width="30px"
   height="30px"
   viewBox="0 0 30 30"
   enable-background="new 0 0 30 30"
   xml:space="preserve"
   id="svg2"
   inkscape:version="0.48.3.1 r9886"
   sodipodi:docname="back.svg"
   inkscape:export-filename="/home/mkiol/dev/Qt/ubi/qml/ubi/images/back.png"
   inkscape:export-xdpi="90"
   inkscape:export-ydpi="90"><metadata
   id="metadata21"><rdf:RDF><cc:Work
       rdf:about=""><dc:format>image/svg+xml</dc:format><dc:type
         rdf:resource="http://purl.org/dc/dcmitype/StillImage" /><dc:title></dc:title></cc:Work></rdf:RDF></metadata><defs
   id="defs19" /><sodipodi:namedview
   pagecolor="#ffffff"
   bordercolor="#666666"
   borderopacity="1"
   objecttolerance="10"
   gridtolerance="10"
   guidetolerance="10"
   inkscape:pageopacity="0"
   inkscape:pageshadow="2"
   inkscape:window-width="640"
   inkscape:window-height="480"
   id="namedview17"
   showgrid="false"
   inkscape:zoom="7.8666667"
   inkscape:cx="15"
   inkscape:cy="15"
   inkscape:window-x="65"
   inkscape:window-y="24"
   inkscape:window-maximized="0"
   inkscape:current-layer="svg2" />
<g
   id="DO_NOT_EDIT_-_BOUNDING_BOX">
	<rect
   id="BOUNDING_BOX"
   fill="none"
   width="30"
   height="30" />
</g>
<g
   id="PLACE_YOUR_GRAPHIC_HERE">
	<path
   opacity="0.3"
   d="M26,12H11l5.293-5.293c0.389-0.391,0.389-1.025,0-1.414l-1.586-1.586c-0.389-0.391-1.025-0.391-1.414,0   l-9.586,9.586c-0.389,0.389-0.389,1.023,0,1.414l9.586,9.586c0.389,0.389,1.025,0.389,1.414,0l1.586-1.586   c0.389-0.389,0.389-1.025,0-1.414L11,16h15c0.55,0,1-0.451,1-1v-2C27,12.449,26.55,12,26,12z"
   id="path7" />
	<path
   opacity="0.15"
   d="M14,26.585c-0.535,0-1.037-0.208-1.414-0.585L3,16.414c-0.779-0.782-0.779-2.051,0-2.829L12.586,4   C12.961,3.623,13.464,3.414,14,3.414s1.039,0.208,1.416,0.587L17,5.586c0.778,0.778,0.778,2.046,0.002,2.827L13.414,12H26   c1.103,0,2,0.897,2,2v2c0,1.103-0.897,2-2,2H13.414L17,21.586c0.78,0.779,0.78,2.049,0,2.828L15.414,26   C15.037,26.377,14.535,26.585,14,26.585z"
   id="path9" />
	<path
   opacity="0.15"
   d="M26,13H11l5.293-5.293c0.389-0.391,0.389-1.025,0-1.414l-1.586-1.586c-0.389-0.391-1.025-0.391-1.414,0   l-9.586,9.586c-0.389,0.389-0.389,1.023,0,1.414l9.586,9.586c0.389,0.389,1.025,0.389,1.414,0l1.586-1.586   c0.389-0.389,0.389-1.025,0-1.414L11,17h15c0.55,0,1-0.451,1-1v-2C27,13.449,26.55,13,26,13z"
   id="path11" />
	<path
   fill="#FFFFFF"
   d="M26,13H11l5.293-5.293c0.389-0.391,0.389-1.025,0-1.414l-1.586-1.586c-0.389-0.391-1.025-0.391-1.414,0   l-9.586,9.586c-0.389,0.389-0.389,1.023,0,1.414l9.586,9.586c0.389,0.389,1.025,0.389,1.414,0l1.586-1.586   c0.389-0.389,0.389-1.025,0-1.414L11,17h15c0.55,0,1-0.451,1-1v-2C27,13.449,26.55,13,26,13z"
   id="path13" />
	<rect
   fill="none"
   width="30"
   height="30"
   id="rect15" />
</g>
</svg>