<?xml version="1.0" encoding="UTF-8" standalone="no"?>
<!-- Generator: Adobe Illustrator 15.0.0, SVG Export Plug-In . SVG Version: 6.00 Build 0)  -->

<svg
   xmlns:dc="http://purl.org/dc/elements/1.1/"
   xmlns:cc="http://creativecommons.org/ns#"
   xmlns:rdf="http://www.w3.org/1999/02/22-rdf-syntax-ns#"
   xmlns:svg="http://www.w3.org/2000/svg"
   xmlns="http://www.w3.org/2000/svg"
   xmlns:sodipodi="http://sodipodi.sourceforge.net/DTD/sodipodi-0.dtd"
   xmlns:inkscape="http://www.inkscape.org/namespaces/inkscape"
   version="1.1"
   x="0px"
   y="0px"
   width="30px"
   height="30px"
   viewBox="0 0 30 30"
   enable-background="new 0 0 30 30"
   xml:space="preserve"
   id="svg2"
   inkscape:version="0.48.3.1 r9886"
   sodipodi:docname="document-big.svg"
   inkscape:export-filename="/home/mkiol/dev/Qt/ubi/qml/ubi/images/document.png"
   inkscape:export-xdpi="180"
   inkscape:export-ydpi="180"><metadata
   id="metadata19"><rdf:RDF><cc:Work
       rdf:about=""><dc:format>image/svg+xml</dc:format><dc:type
         rdf:resource="http://purl.org/dc/dcmitype/StillImage" /><dc:title></dc:title></cc:Work></rdf:RDF></metadata><defs
   id="defs17" /><sodipodi:namedview
   pagecolor="#ffffff"
   bordercolor="#666666"
   borderopacity="1"
   objecttolerance="10"
   gridtolerance="10"
   guidetolerance="10"
   inkscape:pageopacity="0"
   inkscape:pageshadow="2"
   inkscape:window-width="1004"
   inkscape:window-height="560"
   id="namedview15"
   showgrid="false"
   inkscape:zoom="7.3202127"
   inkscape:cx="-14.099104"
   inkscape:cy="14.795088"
   inkscape:window-x="65"
   inkscape:window-y="24"
   inkscape:window-maximized="0"
   inkscape:current-layer="svg2"
   inkscape:snap-global="false" />
<path
   inkscape:connector-curvature="0"
   d="M 15.000178,30 C 3.8870516,30 0,26.113305 0,15.000179 0,3.8866946 3.8870516,0 15.000178,0 26.113304,0 30,3.8866946 30,15.000179 30,26.112947 26.113304,30 15.000178,30 z"
   id="path4"
   style="fill:#000000;fill-opacity:0.19607843" /><g
   id="DO_NOT_EDIT_-_BOUNDING_BOX">
	<rect
   id="BOUNDING_BOX"
   fill="none"
   width="30"
   height="30" />
</g>

<g
   transform="matrix(0.60714286,0,0,0.60714286,5.8928571,5.8928571)"
   id="PLACE_YOUR_GRAPHIC_HERE"><path
     style="opacity:0.3"
     inkscape:connector-curvature="0"
     d="M 21,1 H 5 C 4.451,1 4,1.45 4,2 v 24 c 0,0.55 0.451,1 1,1 h 20 c 0.551,0 1,-0.45 1,-1 V 6 L 21,1 z m 1.096,19.971 H 7.904 c -0.553,0 -1,-0.447 -1,-1 0,-0.553 0.447,-1 1,-1 h 14.191 c 0.553,0 1,0.447 1,1 0,0.553 -0.447,1 -0.999,1 z m 0,-4 H 7.904 c -0.553,0 -1,-0.447 -1,-1 0,-0.553 0.447,-1 1,-1 h 14.191 c 0.553,0 1,0.447 1,1 0,0.553 -0.447,1 -0.999,1 z m 0,-4 H 7.904 c -0.553,0 -1,-0.447 -1,-1 0,-0.553 0.447,-1 1,-1 h 14.191 c 0.553,0 1,0.447 1,1 0,0.553 -0.447,1 -0.999,1 z m 0,-4 H 7.904 c -0.553,0 -1,-0.447 -1,-1 0,-0.553 0.447,-1 1,-1 h 14.191 c 0.553,0 1,0.447 1,1 0,0.553 -0.447,1 -0.999,1 z"
     id="path7" /><path
     style="opacity:0.15"
     inkscape:connector-curvature="0"
     d="M 5,29 C 3.897,29 3,28.103 3,27 V 3 C 3,1.897 3.897,1 5,1 h 16 c 0.266,0 0.52,0.105 0.707,0.293 l 5,5 C 26.895,6.48 27,6.735 27,7 v 20 c 0,1.103 -0.897,2 -2,2 H 5 z M 7.903,20.971 H 22.096 7.904 7.903 z m 0,-4 H 22.096 7.904 7.903 z m 0,-4 H 22.096 7.904 7.903 z m 0,-4 H 22.096 7.904 7.903 z"
     id="path9" /><path
     style="opacity:0.15"
     inkscape:connector-curvature="0"
     d="M 21,2 H 5 C 4.451,2 4,2.45 4,3 v 24 c 0,0.55 0.451,1 1,1 h 20 c 0.551,0 1,-0.45 1,-1 V 7 L 21,2 z m 1.096,19.971 H 7.904 c -0.553,0 -1,-0.447 -1,-1 0,-0.553 0.447,-1 1,-1 h 14.191 c 0.553,0 1,0.447 1,1 0,0.553 -0.447,1 -0.999,1 z m 0,-4 H 7.904 c -0.553,0 -1,-0.447 -1,-1 0,-0.553 0.447,-1 1,-1 h 14.191 c 0.553,0 1,0.447 1,1 0,0.553 -0.447,1 -0.999,1 z m 0,-4 H 7.904 c -0.553,0 -1,-0.447 -1,-1 0,-0.553 0.447,-1 1,-1 h 14.191 c 0.553,0 1,0.447 1,1 0,0.553 -0.447,1 -0.999,1 z m 0,-4 H 7.904 c -0.553,0 -1,-0.447 -1,-1 0,-0.553 0.447,-1 1,-1 h 14.191 c 0.553,0 1,0.447 1,1 0,0.553 -0.447,1 -0.999,1 z"
     id="path11" /><path
     style="fill:#ffffff"
     inkscape:connector-curvature="0"
     d="M 21,2 H 5 C 4.451,2 4,2.45 4,3 v 24 c 0,0.55 0.451,1 1,1 h 20 c 0.551,0 1,-0.45 1,-1 V 7 L 21,2 z m 1.096,19.971 H 7.904 c -0.553,0 -1,-0.447 -1,-1 0,-0.553 0.447,-1 1,-1 h 14.191 c 0.553,0 1,0.447 1,1 0,0.553 -0.447,1 -0.999,1 z m 0,-4 H 7.904 c -0.553,0 -1,-0.447 -1,-1 0,-0.553 0.447,-1 1,-1 h 14.191 c 0.553,0 1,0.447 1,1 0,0.553 -0.447,1 -0.999,1 z m 0,-4 H 7.904 c -0.553,0 -1,-0.447 -1,-1 0,-0.553 0.447,-1 1,-1 h 14.191 c 0.553,0 1,0.447 1,1 0,0.553 -0.447,1 -0.999,1 z m 0,-4 H 7.904 c -0.553,0 -1,-0.447 -1,-1 0,-0.553 0.447,-1 1,-1 h 14.191 c 0.553,0 1,0.447 1,1 0,0.553 -0.447,1 -0.999,1 z"
     id="path13" /></g></svg>