<?xml version="1.0" encoding="UTF-8" standalone="no"?>
<!-- Generator: Adobe Illustrator 15.0.0, SVG Export Plug-In . SVG Version: 6.00 Build 0)  -->

<svg
   xmlns:dc="http://purl.org/dc/elements/1.1/"
   xmlns:cc="http://creativecommons.org/ns#"
   xmlns:rdf="http://www.w3.org/1999/02/22-rdf-syntax-ns#"
   xmlns:svg="http://www.w3.org/2000/svg"
   xmlns="http://www.w3.org/2000/svg"
   xmlns:sodipodi="http://sodipodi.sourceforge.net/DTD/sodipodi-0.dtd"
   xmlns:inkscape="http://www.inkscape.org/namespaces/inkscape"
   version="1.1"
   x="0px"
   y="0px"
   width="30px"
   height="30px"
   viewBox="0 0 30 30"
   enable-background="new 0 0 30 30"
   xml:space="preserve"
   id="svg2"
   inkscape:version="0.48.3.1 r9886"
   sodipodi:docname="folder-big.svg"
   inkscape:export-filename="/home/mkiol/dev/Qt/ubi/qml/ubi/images/folder.png"
   inkscape:export-xdpi="180"
   inkscape:export-ydpi="180"><metadata
   id="metadata19"><rdf:RDF><cc:Work
       rdf:about=""><dc:format>image/svg+xml</dc:format><dc:type
         rdf:resource="http://purl.org/dc/dcmitype/StillImage" /><dc:title /></cc:Work></rdf:RDF></metadata><defs
   id="defs17" /><sodipodi:namedview
   pagecolor="#ffffff"
   bordercolor="#666666"
   borderopacity="1"
   objecttolerance="10"
   gridtolerance="10"
   guidetolerance="10"
   inkscape:pageopacity="0"
   inkscape:pageshadow="2"
   inkscape:window-width="1004"
   inkscape:window-height="560"
   id="namedview15"
   showgrid="false"
   inkscape:zoom="7.3202127"
   inkscape:cx="5.7090631"
   inkscape:cy="14.795088"
   inkscape:window-x="65"
   inkscape:window-y="24"
   inkscape:window-maximized="0"
   inkscape:current-layer="svg2"
   inkscape:snap-global="false" />
<path
   inkscape:connector-curvature="0"
   d="M 15.000178,30 C 3.8870516,30 0,26.113305 0,15.000179 0,3.8866946 3.8870516,0 15.000178,0 26.113304,0 30,3.8866946 30,15.000179 30,26.112947 26.113304,30 15.000178,30 z"
   id="path4"
   style="fill:#000000;fill-opacity:0.19607843" /><g
   id="DO_NOT_EDIT_-_BOUNDING_BOX">
	<rect
   id="BOUNDING_BOX"
   fill="none"
   width="30"
   height="30" />
</g>
<g
   id="PLACE_YOUR_GRAPHIC_HERE"
   transform="matrix(0.71428571,0,0,0.70833333,4.2857143,4.4464285)">
	<path
   d="M 27,6 H 11.5 L 9.64,3.768 C 9.289,3.346 8.55,3 8,3 H 3 C 2.45,3 2,3.45 2,4 v 20 c 0,0.55 0.45,1 1,1 h 24 c 0.551,0 1,-0.45 1,-1 V 7 C 28,6.45 27.551,6 27,6 z"
   id="path7"
   inkscape:connector-curvature="0"
   style="opacity:0.3" />
	<path
   d="M 3,27 C 1.897,27 1,26.103 1,25 V 5 C 1,3.897 1.897,3 3,3 h 5 c 0.852,0 1.864,0.474 2.409,1.127 L 11.968,6 H 27 c 1.103,0 2,0.897 2,2 v 17 c 0,1.103 -0.897,2 -2,2 H 3 z"
   id="path9"
   inkscape:connector-curvature="0"
   style="opacity:0.15" />
	<path
   d="M 27,7 H 11.5 L 9.64,4.768 C 9.289,4.346 8.55,4 8,4 H 3 C 2.45,4 2,4.45 2,5 v 20 c 0,0.55 0.45,1 1,1 h 24 c 0.551,0 1,-0.45 1,-1 V 8 C 28,7.45 27.551,7 27,7 z"
   id="path11"
   inkscape:connector-curvature="0"
   style="opacity:0.15" />
	<path
   d="M 27,7 H 11.5 L 9.64,4.768 C 9.289,4.346 8.55,4 8,4 H 3 C 2.45,4 2,4.45 2,5 v 20 c 0,0.55 0.45,1 1,1 h 24 c 0.551,0 1,-0.45 1,-1 V 8 C 28,7.45 27.551,7 27,7 z"
   id="path13"
   inkscape:connector-curvature="0"
   style="fill:#ffffff" />
</g>
</svg>