<?xml version="1.0" encoding="UTF-8" standalone="no"?>
<!-- Generator: Adobe Illustrator 15.0.0, SVG Export Plug-In . SVG Version: 6.00 Build 0)  -->

<svg
   xmlns:dc="http://purl.org/dc/elements/1.1/"
   xmlns:cc="http://creativecommons.org/ns#"
   xmlns:rdf="http://www.w3.org/1999/02/22-rdf-syntax-ns#"
   xmlns:svg="http://www.w3.org/2000/svg"
   xmlns="http://www.w3.org/2000/svg"
   xmlns:sodipodi="http://sodipodi.sourceforge.net/DTD/sodipodi-0.dtd"
   xmlns:inkscape="http://www.inkscape.org/namespaces/inkscape"
   version="1.1"
   x="0px"
   y="0px"
   width="30px"
   height="30px"
   viewBox="0 0 30 30"
   enable-background="new 0 0 30 30"
   xml:space="preserve"
   id="svg2"
   inkscape:version="0.48.3.1 r9886"
   sodipodi:docname="folder.svg"
   inkscape:export-filename="/home/mkiol/dev/Qt/ubi/qml/ubi/images/files.png"
   inkscape:export-xdpi="120"
   inkscape:export-ydpi="120"><metadata
   id="metadata19"><rdf:RDF><cc:Work
       rdf:about=""><dc:format>image/svg+xml</dc:format><dc:type
         rdf:resource="http://purl.org/dc/dcmitype/StillImage" /><dc:title></dc:title></cc:Work></rdf:RDF></metadata><defs
   id="defs17" /><sodipodi:namedview
   pagecolor="#ffffff"
   bordercolor="#666666"
   borderopacity="1"
   objecttolerance="10"
   gridtolerance="10"
   guidetolerance="10"
   inkscape:pageopacity="0"
   inkscape:pageshadow="2"
   inkscape:window-width="640"
   inkscape:window-height="480"
   id="namedview15"
   showgrid="false"
   inkscape:zoom="7.8666667"
   inkscape:cx="15"
   inkscape:cy="15"
   inkscape:window-x="165"
   inkscape:window-y="75"
   inkscape:window-maximized="0"
   inkscape:current-layer="svg2" />
<g
   id="DO_NOT_EDIT_-_BOUNDING_BOX">
	<rect
   id="BOUNDING_BOX"
   fill="none"
   width="30"
   height="30" />
</g>
<g
   id="PLACE_YOUR_GRAPHIC_HERE">
	<path
   opacity="0.3"
   d="M27,6H11.5L9.64,3.768C9.289,3.346,8.55,3,8,3H3C2.45,3,2,3.45,2,4v20c0,0.55,0.45,1,1,1h24   c0.551,0,1-0.45,1-1V7C28,6.45,27.551,6,27,6z"
   id="path7" />
	<path
   opacity="0.15"
   d="M3,27c-1.103,0-2-0.897-2-2V5c0-1.103,0.897-2,2-2h5c0.852,0,1.864,0.474,2.409,1.127L11.968,6H27   c1.103,0,2,0.897,2,2v17c0,1.103-0.897,2-2,2H3z"
   id="path9" />
	<path
   opacity="0.15"
   d="M27,7H11.5L9.64,4.768C9.289,4.346,8.55,4,8,4H3C2.45,4,2,4.45,2,5v20c0,0.55,0.45,1,1,1h24   c0.551,0,1-0.45,1-1V8C28,7.45,27.551,7,27,7z"
   id="path11" />
	<path
   fill="#FFFFFF"
   d="M27,7H11.5L9.64,4.768C9.289,4.346,8.55,4,8,4H3C2.45,4,2,4.45,2,5v20c0,0.55,0.45,1,1,1h24   c0.551,0,1-0.45,1-1V8C28,7.45,27.551,7,27,7z"
   id="path13" />
</g>
</svg>