<?xml version="1.0" encoding="UTF-8" standalone="no"?>
<!-- Generator: Adobe Illustrator 15.0.0, SVG Export Plug-In . SVG Version: 6.00 Build 0)  -->

<svg
   xmlns:dc="http://purl.org/dc/elements/1.1/"
   xmlns:cc="http://creativecommons.org/ns#"
   xmlns:rdf="http://www.w3.org/1999/02/22-rdf-syntax-ns#"
   xmlns:svg="http://www.w3.org/2000/svg"
   xmlns="http://www.w3.org/2000/svg"
   xmlns:sodipodi="http://sodipodi.sourceforge.net/DTD/sodipodi-0.dtd"
   xmlns:inkscape="http://www.inkscape.org/namespaces/inkscape"
   version="1.1"
   x="0px"
   y="0px"
   width="30px"
   height="30px"
   viewBox="0 0 30 30"
   enable-background="new 0 0 30 30"
   xml:space="preserve"
   id="svg2"
   inkscape:version="0.48.3.1 r9886"
   sodipodi:docname="music-big.svg"
   inkscape:export-filename="/home/mkiol/dev/Qt/ubi/qml/ubi/images/music.png"
   inkscape:export-xdpi="180"
   inkscape:export-ydpi="180"><metadata
   id="metadata19"><rdf:RDF><cc:Work
       rdf:about=""><dc:format>image/svg+xml</dc:format><dc:type
         rdf:resource="http://purl.org/dc/dcmitype/StillImage" /><dc:title></dc:title></cc:Work></rdf:RDF></metadata><defs
   id="defs17" /><sodipodi:namedview
   pagecolor="#ffffff"
   bordercolor="#666666"
   borderopacity="1"
   objecttolerance="10"
   gridtolerance="10"
   guidetolerance="10"
   inkscape:pageopacity="0"
   inkscape:pageshadow="2"
   inkscape:window-width="1004"
   inkscape:window-height="560"
   id="namedview15"
   showgrid="false"
   inkscape:zoom="7.3202127"
   inkscape:cx="-14.099104"
   inkscape:cy="14.795088"
   inkscape:window-x="141"
   inkscape:window-y="271"
   inkscape:window-maximized="0"
   inkscape:current-layer="svg2"
   inkscape:snap-global="false" />
<path
   inkscape:connector-curvature="0"
   d="M 15.000178,30 C 3.8870516,30 0,26.113305 0,15.000179 0,3.8866946 3.8870516,0 15.000178,0 26.113304,0 30,3.8866946 30,15.000179 30,26.112947 26.113304,30 15.000178,30 z"
   id="path4"
   style="fill:#000000;fill-opacity:0.19607843" /><g
   id="DO_NOT_EDIT_-_BOUNDING_BOX">
	<rect
   id="BOUNDING_BOX"
   fill="none"
   width="30"
   height="30" />
</g>

<g
   transform="matrix(0.61203412,0,0,0.61203412,6.1261302,5.7510106)"
   id="PLACE_YOUR_GRAPHIC_HERE"><path
     style="opacity:0.3"
     inkscape:connector-curvature="0"
     d="M 24.033,1.256 11.967,4.445 C 11.435,4.586 11,5.15 11,5.701 v 14.458 c -1.125,-0.302 -2.567,-0.157 -3.949,0.51 -2.352,1.138 -3.61,3.326 -2.81,4.89 0.799,1.563 3.354,1.908 5.708,0.771 1.87,-0.905 3.05,-2.473 3.05,-3.864 V 10 l 10,-2.645 V 18.16 c -1.125,-0.301 -2.566,-0.158 -3.949,0.51 -2.352,1.137 -3.61,3.326 -2.809,4.889 0.799,1.563 3.354,1.91 5.707,0.771 1.875,-0.906 3.055,-2.477 3.051,-3.869 V 2 C 25,1.45 24.564,1.115 24.033,1.256 z"
     id="path7" /><path
     style="opacity:0.15"
     inkscape:connector-curvature="0"
     d="M 7.168,29 C 5.413,29 3.986,28.258 3.35,27.014 2.936,26.205 2.886,25.272 3.206,24.316 c 0.476,-1.418 1.75,-2.744 3.408,-3.547 1.03,-0.497 2.131,-0.76 3.186,-0.76 0.067,0 0.133,0.001 0.199,0.003 V 6.701 c 0,-1.009 0.736,-1.965 1.711,-2.223 L 23.776,1.289 C 23.94,1.246 24.106,1.224 24.27,1.224 25.257,1.224 26,1.987 26,3 v 18.461 c 0.005,1.832 -1.414,3.705 -3.615,4.77 -1.042,0.504 -2.153,0.771 -3.215,0.771 l 0,0 c -1.755,0 -3.183,-0.743 -3.818,-1.987 -0.415,-0.809 -0.464,-1.741 -0.144,-2.698 0.476,-1.418 1.75,-2.744 3.408,-3.546 1.029,-0.497 2.13,-0.76 3.185,-0.76 0.067,0 0.134,0.002 0.2,0.004 V 9.654 l -8,2.116 v 11.696 c 0,1.831 -1.419,3.701 -3.615,4.765 C 9.342,28.733 8.229,29 7.168,29 z"
     id="path9" /><path
     style="opacity:0.15"
     inkscape:connector-curvature="0"
     d="M 24.033,2.256 11.967,5.445 C 11.435,5.586 11,6.15 11,6.701 v 14.458 c -1.125,-0.302 -2.567,-0.157 -3.949,0.51 -2.352,1.138 -3.61,3.326 -2.81,4.89 0.799,1.563 3.354,1.908 5.708,0.771 1.87,-0.905 3.05,-2.473 3.05,-3.864 V 11 l 10,-2.645 V 19.16 c -1.125,-0.301 -2.566,-0.158 -3.949,0.51 -2.352,1.137 -3.61,3.326 -2.809,4.889 0.799,1.563 3.354,1.91 5.707,0.771 1.875,-0.906 3.055,-2.477 3.051,-3.869 V 3 C 25,2.45 24.564,2.115 24.033,2.256 z"
     id="path11" /><path
     style="fill:#ffffff"
     inkscape:connector-curvature="0"
     d="M 24.033,2.256 11.967,5.445 C 11.435,5.586 11,6.15 11,6.701 v 14.458 c -1.125,-0.302 -2.567,-0.157 -3.949,0.51 -2.352,1.138 -3.61,3.326 -2.81,4.89 0.799,1.563 3.354,1.908 5.708,0.771 1.87,-0.905 3.05,-2.473 3.05,-3.864 V 11 l 10,-2.645 V 19.16 c -1.125,-0.301 -2.566,-0.158 -3.949,0.51 -2.352,1.137 -3.61,3.326 -2.809,4.889 0.799,1.563 3.354,1.91 5.707,0.771 1.875,-0.906 3.055,-2.477 3.051,-3.869 V 3 C 25,2.45 24.564,2.115 24.033,2.256 z"
     id="path13" /></g></svg>