<?xml version="1.0" encoding="UTF-8" standalone="no"?>
<!-- Generator: Adobe Illustrator 15.0.0, SVG Export Plug-In . SVG Version: 6.00 Build 0)  -->

<svg
   xmlns:dc="http://purl.org/dc/elements/1.1/"
   xmlns:cc="http://creativecommons.org/ns#"
   xmlns:rdf="http://www.w3.org/1999/02/22-rdf-syntax-ns#"
   xmlns:svg="http://www.w3.org/2000/svg"
   xmlns="http://www.w3.org/2000/svg"
   xmlns:sodipodi="http://sodipodi.sourceforge.net/DTD/sodipodi-0.dtd"
   xmlns:inkscape="http://www.inkscape.org/namespaces/inkscape"
   version="1.1"
   x="0px"
   y="0px"
   width="30px"
   height="30px"
   viewBox="0 0 30 30"
   enable-background="new 0 0 30 30"
   xml:space="preserve"
   id="svg2"
   inkscape:version="0.48.3.1 r9886"
   sodipodi:docname="music.svg"
   inkscape:export-filename="/home/mkiol/dev/Qt/ubi/qml/ubi/images/music-small.png"
   inkscape:export-xdpi="120"
   inkscape:export-ydpi="120"><metadata
   id="metadata19"><rdf:RDF><cc:Work
       rdf:about=""><dc:format>image/svg+xml</dc:format><dc:type
         rdf:resource="http://purl.org/dc/dcmitype/StillImage" /><dc:title></dc:title></cc:Work></rdf:RDF></metadata><defs
   id="defs17" /><sodipodi:namedview
   pagecolor="#ffffff"
   bordercolor="#666666"
   borderopacity="1"
   objecttolerance="10"
   gridtolerance="10"
   guidetolerance="10"
   inkscape:pageopacity="0"
   inkscape:pageshadow="2"
   inkscape:window-width="640"
   inkscape:window-height="480"
   id="namedview15"
   showgrid="false"
   inkscape:zoom="7.8666667"
   inkscape:cx="15"
   inkscape:cy="15"
   inkscape:window-x="65"
   inkscape:window-y="24"
   inkscape:window-maximized="0"
   inkscape:current-layer="svg2" />
<g
   id="DO_NOT_EDIT_-_BOUNDING_BOX">
	<rect
   id="BOUNDING_BOX"
   fill="none"
   width="30"
   height="30" />
</g>
<g
   id="PLACE_YOUR_GRAPHIC_HERE">
	<path
   opacity="0.3"
   d="M24.033,1.256L11.967,4.445C11.435,4.586,11,5.15,11,5.701v14.458c-1.125-0.302-2.567-0.157-3.949,0.51   c-2.352,1.138-3.61,3.326-2.81,4.89c0.799,1.563,3.354,1.908,5.708,0.771c1.87-0.905,3.05-2.473,3.05-3.864V10l10-2.645V18.16   c-1.125-0.301-2.566-0.158-3.949,0.51c-2.352,1.137-3.61,3.326-2.809,4.889c0.799,1.563,3.354,1.91,5.707,0.771   c1.875-0.906,3.055-2.477,3.051-3.869V2C25,1.45,24.564,1.115,24.033,1.256z"
   id="path7" />
	<path
   opacity="0.15"
   d="M7.168,29c-1.755,0-3.182-0.742-3.818-1.986c-0.414-0.809-0.464-1.742-0.144-2.698   c0.476-1.418,1.75-2.744,3.408-3.547c1.03-0.497,2.131-0.76,3.186-0.76c0.067,0,0.133,0.001,0.199,0.003V6.701   c0-1.009,0.736-1.965,1.711-2.223l12.066-3.189c0.164-0.043,0.33-0.065,0.494-0.065C25.257,1.224,26,1.987,26,3v18.461   c0.005,1.832-1.414,3.705-3.615,4.77c-1.042,0.504-2.153,0.771-3.215,0.771l0,0c-1.755,0-3.183-0.743-3.818-1.987   c-0.415-0.809-0.464-1.741-0.144-2.698c0.476-1.418,1.75-2.744,3.408-3.546c1.029-0.497,2.13-0.76,3.185-0.76   c0.067,0,0.134,0.002,0.2,0.004V9.654l-8,2.116v11.696c0,1.831-1.419,3.701-3.615,4.765C9.342,28.733,8.229,29,7.168,29z"
   id="path9" />
	<path
   opacity="0.15"
   d="M24.033,2.256L11.967,5.445C11.435,5.586,11,6.15,11,6.701v14.458c-1.125-0.302-2.567-0.157-3.949,0.51   c-2.352,1.138-3.61,3.326-2.81,4.89c0.799,1.563,3.354,1.908,5.708,0.771c1.87-0.905,3.05-2.473,3.05-3.864V11l10-2.645V19.16   c-1.125-0.301-2.566-0.158-3.949,0.51c-2.352,1.137-3.61,3.326-2.809,4.889c0.799,1.563,3.354,1.91,5.707,0.771   c1.875-0.906,3.055-2.477,3.051-3.869V3C25,2.45,24.564,2.115,24.033,2.256z"
   id="path11" />
	<path
   fill="#FFFFFF"
   d="M24.033,2.256L11.967,5.445C11.435,5.586,11,6.15,11,6.701v14.458c-1.125-0.302-2.567-0.157-3.949,0.51   c-2.352,1.138-3.61,3.326-2.81,4.89c0.799,1.563,3.354,1.908,5.708,0.771c1.87-0.905,3.05-2.473,3.05-3.864V11l10-2.645V19.16   c-1.125-0.301-2.566-0.158-3.949,0.51c-2.352,1.137-3.61,3.326-2.809,4.889c0.799,1.563,3.354,1.91,5.707,0.771   c1.875-0.906,3.055-2.477,3.051-3.869V3C25,2.45,24.564,2.115,24.033,2.256z"
   id="path13" />
</g>
</svg>