<?xml version="1.0" encoding="UTF-8" standalone="no"?>
<!-- Generator: Adobe Illustrator 15.0.0, SVG Export Plug-In . SVG Version: 6.00 Build 0)  -->

<svg
   xmlns:dc="http://purl.org/dc/elements/1.1/"
   xmlns:cc="http://creativecommons.org/ns#"
   xmlns:rdf="http://www.w3.org/1999/02/22-rdf-syntax-ns#"
   xmlns:svg="http://www.w3.org/2000/svg"
   xmlns="http://www.w3.org/2000/svg"
   xmlns:sodipodi="http://sodipodi.sourceforge.net/DTD/sodipodi-0.dtd"
   xmlns:inkscape="http://www.inkscape.org/namespaces/inkscape"
   version="1.1"
   x="0px"
   y="0px"
   width="30px"
   height="30px"
   viewBox="0 0 30 30"
   enable-background="new 0 0 30 30"
   xml:space="preserve"
   id="svg2"
   inkscape:version="0.48.3.1 r9886"
   sodipodi:docname="options.svg"
   inkscape:export-filename="/home/mkiol/dev/Qt/ubi/qml/ubi/images/options.png"
   inkscape:export-xdpi="90"
   inkscape:export-ydpi="90"><metadata
   id="metadata21"><rdf:RDF><cc:Work
       rdf:about=""><dc:format>image/svg+xml</dc:format><dc:type
         rdf:resource="http://purl.org/dc/dcmitype/StillImage" /><dc:title></dc:title></cc:Work></rdf:RDF></metadata><defs
   id="defs19" /><sodipodi:namedview
   pagecolor="#ffffff"
   bordercolor="#666666"
   borderopacity="1"
   objecttolerance="10"
   gridtolerance="10"
   guidetolerance="10"
   inkscape:pageopacity="0"
   inkscape:pageshadow="2"
   inkscape:window-width="640"
   inkscape:window-height="480"
   id="namedview17"
   showgrid="false"
   inkscape:zoom="7.8666667"
   inkscape:cx="15"
   inkscape:cy="15"
   inkscape:window-x="65"
   inkscape:window-y="24"
   inkscape:window-maximized="0"
   inkscape:current-layer="svg2" />
<g
   id="DO_NOT_EDIT_-_BOUNDING_BOX">
	<rect
   id="BOUNDING_BOX"
   fill="none"
   width="30"
   height="30" />
</g>
<g
   id="PLACE_YOUR_GRAPHIC_HERE">
	<path
   opacity="0.3"
   d="M25,19H5c-1.1,0-2,0.9-2,2s0.9,2,2,2h20c1.1,0,2-0.9,2-2S26.1,19,25,19z M5,9h20c1.1,0,2-0.9,2-2   c0-1.101-0.9-2-2-2H5C3.9,5,3,5.899,3,7C3,8.1,3.9,9,5,9z M25,12H5c-1.1,0-2,0.899-2,2c0,1.099,0.9,2,2,2h20c1.1,0,2-0.9,2-2   C27,12.899,26.1,12,25,12z"
   id="path7" />
	<path
   opacity="0.15"
   d="M5,25c-1.654,0-3-1.346-3-3s1.346-3,3-3h20c1.654,0,3,1.346,3,3s-1.346,3-3,3H5z M5,18   c-1.654,0-3-1.346-3-3c0-1.654,1.346-3,3-3h20c1.654,0,3,1.346,3,3c0,1.654-1.346,3-3,3H5z M5,11c-1.654,0-3-1.346-3-3s1.346-3,3-3   h20c1.654,0,3,1.346,3,3s-1.346,3-3,3H5z"
   id="path9" />
	<path
   opacity="0.15"
   d="M25,20H5c-1.1,0-2,0.9-2,2s0.9,2,2,2h20c1.1,0,2-0.9,2-2S26.1,20,25,20z M5,10h20c1.1,0,2-0.9,2-2   c0-1.101-0.9-2-2-2H5C3.9,6,3,6.899,3,8C3,9.1,3.9,10,5,10z M25,13H5c-1.1,0-2,0.899-2,2c0,1.099,0.9,2,2,2h20c1.1,0,2-0.9,2-2   C27,13.899,26.1,13,25,13z"
   id="path11" />
	<path
   fill="#FFFFFF"
   d="M25,20H5c-1.1,0-2,0.9-2,2s0.9,2,2,2h20c1.1,0,2-0.9,2-2S26.1,20,25,20z M5,10h20c1.1,0,2-0.9,2-2   c0-1.101-0.9-2-2-2H5C3.9,6,3,6.899,3,8C3,9.1,3.9,10,5,10z M25,13H5c-1.1,0-2,0.899-2,2c0,1.099,0.9,2,2,2h20c1.1,0,2-0.9,2-2   C27,13.899,26.1,13,25,13z"
   id="path13" />
	<rect
   fill="none"
   width="30"
   height="30"
   id="rect15" />
</g>
</svg>