<?xml version="1.0" encoding="UTF-8" standalone="no"?>
<!-- Generator: Adobe Illustrator 15.0.0, SVG Export Plug-In . SVG Version: 6.00 Build 0)  -->

<svg
   xmlns:dc="http://purl.org/dc/elements/1.1/"
   xmlns:cc="http://creativecommons.org/ns#"
   xmlns:rdf="http://www.w3.org/1999/02/22-rdf-syntax-ns#"
   xmlns:svg="http://www.w3.org/2000/svg"
   xmlns="http://www.w3.org/2000/svg"
   xmlns:sodipodi="http://sodipodi.sourceforge.net/DTD/sodipodi-0.dtd"
   xmlns:inkscape="http://www.inkscape.org/namespaces/inkscape"
   version="1.1"
   x="0px"
   y="0px"
   width="30px"
   height="30px"
   viewBox="0 0 30 30"
   enable-background="new 0 0 30 30"
   xml:space="preserve"
   id="svg2"
   inkscape:version="0.48.3.1 r9886"
   sodipodi:docname="photos-big.svg"
   inkscape:export-filename="/home/mkiol/dev/Qt/ubi/qml/ubi/images/photo.png"
   inkscape:export-xdpi="180"
   inkscape:export-ydpi="180"><metadata
   id="metadata19"><rdf:RDF><cc:Work
       rdf:about=""><dc:format>image/svg+xml</dc:format><dc:type
         rdf:resource="http://purl.org/dc/dcmitype/StillImage" /><dc:title></dc:title></cc:Work></rdf:RDF></metadata><defs
   id="defs17" /><sodipodi:namedview
   pagecolor="#ffffff"
   bordercolor="#666666"
   borderopacity="1"
   objecttolerance="10"
   gridtolerance="10"
   guidetolerance="10"
   inkscape:pageopacity="0"
   inkscape:pageshadow="2"
   inkscape:window-width="1215"
   inkscape:window-height="1000"
   id="namedview15"
   showgrid="false"
   inkscape:zoom="7.3202127"
   inkscape:cx="-14.099104"
   inkscape:cy="14.795088"
   inkscape:window-x="65"
   inkscape:window-y="24"
   inkscape:window-maximized="1"
   inkscape:current-layer="svg2"
   inkscape:snap-global="false" />
<path
   inkscape:connector-curvature="0"
   d="M 15.000178,30 C 3.8870516,30 0,26.113305 0,15.000179 0,3.8866946 3.8870516,0 15.000178,0 26.113304,0 30,3.8866946 30,15.000179 30,26.112947 26.113304,30 15.000178,30 z"
   id="path4"
   style="fill:#000000;fill-opacity:0.19607843" /><g
   id="DO_NOT_EDIT_-_BOUNDING_BOX">
	<rect
   id="BOUNDING_BOX"
   fill="none"
   width="30"
   height="30" />
</g>

<g
   transform="matrix(0.77272727,0,0,0.77272727,3.409091,2.6363637)"
   id="PLACE_YOUR_GRAPHIC_HERE-9"><path
     style="opacity:0.3"
     inkscape:connector-curvature="0"
     d="m 24.5,16.5 -5.146,-5.146 c -0.194,-0.193 -0.513,-0.193 -0.707,0 L 13.5,16.5 10.354,13.354 c -0.194,-0.193 -0.513,-0.193 -0.707,0 L 5.5,17.5 v 4 h 19 v -5 z M 27,5 H 3 C 2.45,5 2,5.451 2,6 v 18 c 0,0.551 0.45,1 1,1 h 24 c 0.55,0 1,-0.449 1,-1 V 6 C 28,5.451 27.55,5 27,5 z M 26,23 H 4 V 7 h 22 v 16 z"
     id="path7-7" /><path
     style="opacity:0.15"
     inkscape:connector-curvature="0"
     d="M 3,27 C 1.897,27 1,26.103 1,25 V 7 C 1,5.897 1.897,5 3,5 h 24 c 1.103,0 2,0.897 2,2 v 18 c 0,1.103 -0.897,2 -2,2 H 3 z"
     id="path9-4" /><path
     style="opacity:0.15"
     inkscape:connector-curvature="0"
     d="m 24.5,17.5 -5.146,-5.146 c -0.194,-0.193 -0.513,-0.193 -0.707,0 L 13.5,17.5 10.354,14.354 c -0.194,-0.193 -0.513,-0.193 -0.707,0 L 5.5,18.5 v 4 h 19 v -5 z M 27,6 H 3 C 2.45,6 2,6.451 2,7 v 18 c 0,0.551 0.45,1 1,1 h 24 c 0.55,0 1,-0.449 1,-1 V 7 C 28,6.451 27.55,6 27,6 z M 26,24 H 4 V 8 h 22 v 16 z"
     id="path11-3" /><path
     style="fill:#ffffff"
     inkscape:connector-curvature="0"
     d="m 24.5,17.5 -5.146,-5.146 c -0.194,-0.193 -0.513,-0.193 -0.707,0 L 13.5,17.5 10.354,14.354 c -0.194,-0.193 -0.513,-0.193 -0.707,0 L 5.5,18.5 v 4 h 19 v -5 z M 27,6 H 3 C 2.45,6 2,6.451 2,7 v 18 c 0,0.551 0.45,1 1,1 h 24 c 0.55,0 1,-0.449 1,-1 V 7 C 28,6.451 27.55,6 27,6 z M 26,24 H 4 V 8 h 22 v 16 z"
     id="path13-4" /></g></svg>