<?xml version="1.0" encoding="UTF-8" standalone="no"?>
<svg
   xmlns:dc="http://purl.org/dc/elements/1.1/"
   xmlns:cc="http://creativecommons.org/ns#"
   xmlns:rdf="http://www.w3.org/1999/02/22-rdf-syntax-ns#"
   xmlns:svg="http://www.w3.org/2000/svg"
   xmlns="http://www.w3.org/2000/svg"
   xmlns:sodipodi="http://sodipodi.sourceforge.net/DTD/sodipodi-0.dtd"
   xmlns:inkscape="http://www.inkscape.org/namespaces/inkscape"
   height="42px"
   version="1.1"
   viewBox="0 0 84 42"
   width="84px"
   x="0px"
   y="0px"
   id="svg2"
   inkscape:version="0.48.3.1 r9886"
   sodipodi:docname="qtg_fr_pushbutton_normal.svg"
   inkscape:export-filename="/home/mkiol/dev/Qt/ubi/qml/ubi/images/pushbutton_normal.png"
   inkscape:export-xdpi="85.714287"
   inkscape:export-ydpi="85.714287">
  <metadata
     id="metadata28">
    <rdf:RDF>
      <cc:Work
         rdf:about="">
        <dc:format>image/svg+xml</dc:format>
        <dc:type
           rdf:resource="http://purl.org/dc/dcmitype/StillImage" />
        <dc:title></dc:title>
      </cc:Work>
    </rdf:RDF>
  </metadata>
  <defs
     id="defs26" />
  <sodipodi:namedview
     pagecolor="#ffffff"
     bordercolor="#666666"
     borderopacity="1"
     objecttolerance="10"
     gridtolerance="10"
     guidetolerance="10"
     inkscape:pageopacity="0"
     inkscape:pageshadow="2"
     inkscape:window-width="640"
     inkscape:window-height="480"
     id="namedview24"
     showgrid="false"
     inkscape:zoom="4.7261905"
     inkscape:cx="42"
     inkscape:cy="21"
     inkscape:window-x="323"
     inkscape:window-y="150"
     inkscape:window-maximized="0"
     inkscape:current-layer="svg2" />
  <linearGradient
     gradientUnits="userSpaceOnUse"
     id="SVGID_1_"
     x1="41.9995"
     x2="41.9995"
     y1="0.082"
     y2="41.4807">
    <stop
       offset="0"
       style="stop-color:#464646"
       id="stop5" />
    <stop
       offset="0.0171"
       style="stop-color:#454545"
       id="stop7" />
    <stop
       offset="0.3689"
       style="stop-color:#2E2E2E"
       id="stop9" />
    <stop
       offset="0.7034"
       style="stop-color:#212121"
       id="stop11" />
    <stop
       offset="1"
       style="stop-color:#1C1C1C"
       id="stop13" />
  </linearGradient>
  <path
     d="M84,20C84,5.047,78.953,0,64,0H20C5.047,0,0,5.047,0,20v2c0,14.953,5.047,20,20,20h44  c14.953,0,20-5.047,20-20V20z"
     fill="url(#SVGID_1_)"
     id="path15" />
  <linearGradient
     gradientUnits="userSpaceOnUse"
     id="SVGID_2_"
     x1="41.9995"
     x2="41.9995"
     y1="0.5"
     y2="41.8042">
    <stop
       offset="0"
       style="stop-color:#FFFFFF"
       id="stop18" />
    <stop
       offset="1"
       style="stop-color:#000000"
       id="stop20" />
  </linearGradient>
  <path
     d="M64,0H20C5.047,0,0,5.047,0,20v2c0,14.953,5.047,20,20,20h44c14.953,0,20-5.047,20-20  v-2C84,5.047,78.953,0,64,0z M83,22c0,14.383-4.617,19-19,19H20C5.617,41,1,36.383,1,22v-2C1,5.617,5.617,1,20,1h44  c14.383,0,19,4.617,19,19V22z"
     fill="url(#SVGID_2_)"
     fill-opacity="0.1"
     stroke-opacity="0.1"
     id="path22" />
</svg>
