<?xml version="1.0" encoding="UTF-8" standalone="no"?>
<!-- Generator: Adobe Illustrator 15.0.0, SVG Export Plug-In . SVG Version: 6.00 Build 0)  -->

<svg
   xmlns:dc="http://purl.org/dc/elements/1.1/"
   xmlns:cc="http://creativecommons.org/ns#"
   xmlns:rdf="http://www.w3.org/1999/02/22-rdf-syntax-ns#"
   xmlns:svg="http://www.w3.org/2000/svg"
   xmlns="http://www.w3.org/2000/svg"
   xmlns:sodipodi="http://sodipodi.sourceforge.net/DTD/sodipodi-0.dtd"
   xmlns:inkscape="http://www.inkscape.org/namespaces/inkscape"
   version="1.1"
   x="0px"
   y="0px"
   width="30px"
   height="30px"
   viewBox="0 0 30 30"
   enable-background="new 0 0 30 30"
   xml:space="preserve"
   id="svg2"
   inkscape:version="0.48.3.1 r9886"
   sodipodi:docname="refresh.svg"
   inkscape:export-filename="/home/mkiol/dev/Qt/ubi/qml/ubi/images/refresh.png"
   inkscape:export-xdpi="90"
   inkscape:export-ydpi="90"><metadata
   id="metadata19"><rdf:RDF><cc:Work
       rdf:about=""><dc:format>image/svg+xml</dc:format><dc:type
         rdf:resource="http://purl.org/dc/dcmitype/StillImage" /><dc:title></dc:title></cc:Work></rdf:RDF></metadata><defs
   id="defs17" /><sodipodi:namedview
   pagecolor="#ffffff"
   bordercolor="#666666"
   borderopacity="1"
   objecttolerance="10"
   gridtolerance="10"
   guidetolerance="10"
   inkscape:pageopacity="0"
   inkscape:pageshadow="2"
   inkscape:window-width="640"
   inkscape:window-height="480"
   id="namedview15"
   showgrid="false"
   inkscape:zoom="7.8666667"
   inkscape:cx="15"
   inkscape:cy="15"
   inkscape:window-x="65"
   inkscape:window-y="24"
   inkscape:window-maximized="0"
   inkscape:current-layer="svg2" />
<g
   id="DO_NOT_EDIT_-_BOUNDING_BOX">
	<rect
   id="BOUNDING_BOX"
   fill="none"
   width="30"
   height="30" />
</g>
<g
   id="PLACE_YOUR_GRAPHIC_HERE">
	<path
   opacity="0.3"
   d="M11.169,6.996C12.308,6.367,13.609,6,15,6c4.41,0,8,3.588,8,8h4c0-6.627-5.373-12-12-12   c-2.155,0-4.172,0.576-5.918,1.572L7.514,1l-5.527,9H13L11.169,6.996z M16.986,18l1.844,3.004C17.691,21.631,16.391,22,15,22   c-4.411,0-8-3.59-8-8H3c0,6.627,5.373,12,12,12c2.16,0,4.18-0.58,5.93-1.58L22.514,27L28,18H16.986z"
   id="path7" />
	<path
   opacity="0.15"
   d="M22.514,29c-0.348,0-0.67-0.181-0.853-0.477l-1.096-1.785C18.827,27.566,16.922,28,15,28   C7.832,28,2,22.168,2,15c0-0.552,0.448-1,1-1h4c0.552,0,1,0.448,1,1c0,3.859,3.14,7,7,7c0.822,0,1.622-0.145,2.39-0.432   l-1.256-2.045c-0.189-0.309-0.197-0.695-0.021-1.012C16.29,18.195,16.624,18,16.986,18H28c0.361,0,0.695,0.195,0.872,0.511   c0.177,0.314,0.17,0.701-0.019,1.01l-5.486,9c-0.181,0.297-0.504,0.479-0.852,0.479C22.515,29,22.515,29,22.514,29z M23,16   c-0.553,0-1-0.448-1-1c0-3.86-3.141-7-7-7c-0.826,0-1.627,0.145-2.395,0.432l1.249,2.048c0.188,0.309,0.195,0.695,0.018,1.01   C13.695,11.805,13.361,12,13,12H1.986c-0.362,0-0.696-0.196-0.873-0.512s-0.169-0.703,0.021-1.012l5.527-9   C6.843,1.181,7.166,1,7.514,1c0,0,0.001,0,0.001,0c0.348,0,0.671,0.182,0.853,0.479l1.082,1.774C11.182,2.431,13.082,2,15,2   c7.168,0,13,5.832,13,13c0,0.552-0.447,1-1,1H23z"
   id="path9" />
	<path
   opacity="0.15"
   d="M11.169,7.996C12.308,7.367,13.609,7,15,7c4.41,0,8,3.588,8,8h4c0-6.627-5.373-12-12-12   c-2.155,0-4.172,0.576-5.918,1.572L7.514,2l-5.527,9H13L11.169,7.996z M16.986,19l1.844,3.004C17.691,22.631,16.391,23,15,23   c-4.411,0-8-3.59-8-8H3c0,6.627,5.373,12,12,12c2.16,0,4.18-0.58,5.93-1.58L22.514,28L28,19H16.986z"
   id="path11" />
	<path
   fill="#FFFFFF"
   d="M11.169,7.996C12.308,7.367,13.609,7,15,7c4.41,0,8,3.588,8,8h4c0-6.627-5.373-12-12-12   c-2.155,0-4.172,0.576-5.918,1.572L7.514,2l-5.527,9H13L11.169,7.996z M16.986,19l1.844,3.004C17.691,22.631,16.391,23,15,23   c-4.411,0-8-3.59-8-8H3c0,6.627,5.373,12,12,12c2.16,0,4.18-0.58,5.93-1.58L22.514,28L28,19H16.986z"
   id="path13" />
</g>
</svg>