<?xml version="1.0" encoding="UTF-8" standalone="no"?>
<svg
   xmlns:dc="http://purl.org/dc/elements/1.1/"
   xmlns:cc="http://creativecommons.org/ns#"
   xmlns:rdf="http://www.w3.org/1999/02/22-rdf-syntax-ns#"
   xmlns:svg="http://www.w3.org/2000/svg"
   xmlns="http://www.w3.org/2000/svg"
   xmlns:sodipodi="http://sodipodi.sourceforge.net/DTD/sodipodi-0.dtd"
   xmlns:inkscape="http://www.inkscape.org/namespaces/inkscape"
   height="30px"
   version="1.1"
   viewBox="0 0 30 30"
   width="30px"
   x="0px"
   y="0px"
   id="svg2"
   inkscape:version="0.48.3.1 r9886"
   sodipodi:docname="toolbar-share.svg"
   inkscape:export-filename="/home/mkiol/dev/Qt/ubi/qml/ubi/images/share.png"
   inkscape:export-xdpi="90"
   inkscape:export-ydpi="90">
  <metadata
     id="metadata16">
    <rdf:RDF>
      <cc:Work
         rdf:about="">
        <dc:format>image/svg+xml</dc:format>
        <dc:type
           rdf:resource="http://purl.org/dc/dcmitype/StillImage" />
        <dc:title></dc:title>
      </cc:Work>
    </rdf:RDF>
  </metadata>
  <defs
     id="defs14" />
  <sodipodi:namedview
     pagecolor="#ffffff"
     bordercolor="#666666"
     borderopacity="1"
     objecttolerance="10"
     gridtolerance="10"
     guidetolerance="10"
     inkscape:pageopacity="0"
     inkscape:pageshadow="2"
     inkscape:window-width="640"
     inkscape:window-height="480"
     id="namedview12"
     showgrid="false"
     inkscape:zoom="7.8666667"
     inkscape:cx="15"
     inkscape:cy="15"
     inkscape:window-x="71"
     inkscape:window-y="38"
     inkscape:window-maximized="0"
     inkscape:current-layer="svg2" />
  <path
     d="M23.25,29c-3.171,0-5.75-2.58-5.75-5.75c0-0.031,0.002-0.064,0.002-0.096l-4.773-2.705  C11.454,21.453,9.89,22,8.25,22C4.252,22,1,18.748,1,14.75C1,10.752,4.252,7.5,8.25,7.5c1.71,0,3.326,0.587,4.625,1.667L17.5,6.701  C17.526,3.553,20.096,1,23.25,1C26.421,1,29,3.58,29,6.75s-2.579,5.75-5.75,5.75c-1.127,0-2.201-0.328-3.144-0.957l-4.644,2.476  c0.024,0.244,0.037,0.487,0.037,0.73c0,0.301-0.021,0.606-0.061,0.914l4.791,2.715c0.914-0.576,1.945-0.879,3.02-0.879  c3.171,0,5.75,2.58,5.75,5.75S26.421,29,23.25,29L23.25,29z"
     fill-opacity="0.15"
     stroke-opacity="0.15"
     id="path4" />
  <path
     d="M23.25,17.5c-1.125,0-2.146,0.408-2.959,1.063l-5.963-3.379c0.108-0.461,0.172-0.939,0.172-1.434  c0-0.438-0.046-0.866-0.132-1.279l5.829-3.109c0.828,0.7,1.884,1.139,3.053,1.139c2.625,0,4.75-2.127,4.75-4.75S25.875,1,23.25,1  c-2.623,0-4.75,2.127-4.75,4.75c0,0.179,0.033,0.349,0.053,0.522l-5.834,3.111C11.584,8.223,10.002,7.5,8.25,7.5  C4.799,7.5,2,10.298,2,13.75C2,17.201,4.799,20,8.25,20c1.695,0,3.229-0.676,4.354-1.771l5.96,3.379  c-0.029,0.211-0.064,0.422-0.064,0.643c0,2.623,2.127,4.75,4.75,4.75c2.625,0,4.75-2.127,4.75-4.75S25.875,17.5,23.25,17.5z"
     fill-opacity="0.3"
     stroke-opacity="0.3"
     id="path6" />
  <path
     d="M23.25,18.5c-1.125,0-2.146,0.408-2.959,1.063l-5.963-3.379c0.108-0.461,0.172-0.94,0.172-1.434  c0-0.438-0.046-0.866-0.132-1.279l5.829-3.109c0.828,0.7,1.884,1.139,3.053,1.139c2.625,0,4.75-2.127,4.75-4.75S25.875,2,23.25,2  c-2.623,0-4.75,2.127-4.75,4.75c0,0.179,0.033,0.349,0.053,0.522l-5.834,3.111C11.584,9.223,10.002,8.5,8.25,8.5  C4.799,8.5,2,11.298,2,14.75C2,18.201,4.799,21,8.25,21c1.695,0,3.229-0.676,4.354-1.771l5.96,3.379  c-0.029,0.211-0.064,0.422-0.064,0.643c0,2.623,2.127,4.75,4.75,4.75c2.625,0,4.75-2.127,4.75-4.75S25.875,18.5,23.25,18.5z"
     fill="#FFFFFF"
     id="path8" />
  <rect
     fill="none"
     height="30"
     width="30"
     id="rect10" />
</svg>
