<?xml version="1.0" encoding="UTF-8" standalone="no"?>
<!-- Generator: Adobe Illustrator 15.0.0, SVG Export Plug-In . SVG Version: 6.00 Build 0)  -->

<svg
   xmlns:dc="http://purl.org/dc/elements/1.1/"
   xmlns:cc="http://creativecommons.org/ns#"
   xmlns:rdf="http://www.w3.org/1999/02/22-rdf-syntax-ns#"
   xmlns:svg="http://www.w3.org/2000/svg"
   xmlns="http://www.w3.org/2000/svg"
   xmlns:sodipodi="http://sodipodi.sourceforge.net/DTD/sodipodi-0.dtd"
   xmlns:inkscape="http://www.inkscape.org/namespaces/inkscape"
   version="1.1"
   x="0px"
   y="0px"
   width="30px"
   height="30px"
   viewBox="0 0 30 30"
   enable-background="new 0 0 30 30"
   xml:space="preserve"
   id="svg2"
   inkscape:version="0.48.3.1 r9886"
   sodipodi:docname="up.svg"
   inkscape:export-filename="/home/mkiol/dev/Qt/ubi/qml/ubi/images/up.png"
   inkscape:export-xdpi="90"
   inkscape:export-ydpi="90"><metadata
   id="metadata21"><rdf:RDF><cc:Work
       rdf:about=""><dc:format>image/svg+xml</dc:format><dc:type
         rdf:resource="http://purl.org/dc/dcmitype/StillImage" /><dc:title></dc:title></cc:Work></rdf:RDF></metadata><defs
   id="defs19" /><sodipodi:namedview
   pagecolor="#ffffff"
   bordercolor="#666666"
   borderopacity="1"
   objecttolerance="10"
   gridtolerance="10"
   guidetolerance="10"
   inkscape:pageopacity="0"
   inkscape:pageshadow="2"
   inkscape:window-width="640"
   inkscape:window-height="480"
   id="namedview17"
   showgrid="false"
   inkscape:zoom="7.8666667"
   inkscape:cx="15"
   inkscape:cy="15"
   inkscape:window-x="485"
   inkscape:window-y="172"
   inkscape:window-maximized="0"
   inkscape:current-layer="svg2" />
<g
   id="DO_NOT_EDIT_-_BOUNDING_BOX"
   transform="matrix(0,1,-1,0,30,0)">
	<rect
   id="BOUNDING_BOX"
   width="30"
   height="30"
   x="0"
   y="0"
   style="fill:none" />
</g>
<g
   id="PLACE_YOUR_GRAPHIC_HERE"
   transform="matrix(0,1,-1,0,30,0)">
	<path
   d="M 26,12 H 11 l 5.293,-5.293 c 0.389,-0.391 0.389,-1.025 0,-1.414 L 14.707,3.707 c -0.389,-0.391 -1.025,-0.391 -1.414,0 l -9.586,9.586 c -0.389,0.389 -0.389,1.023 0,1.414 l 9.586,9.586 c 0.389,0.389 1.025,0.389 1.414,0 l 1.586,-1.586 c 0.389,-0.389 0.389,-1.025 0,-1.414 L 11,16 h 15 c 0.55,0 1,-0.451 1,-1 v -2 c 0,-0.551 -0.45,-1 -1,-1 z"
   id="path7"
   inkscape:connector-curvature="0"
   style="opacity:0.3" />
	<path
   d="m 14,26.585 c -0.535,0 -1.037,-0.208 -1.414,-0.585 L 3,16.414 C 2.221,15.632 2.221,14.363 3,13.585 L 12.586,4 C 12.961,3.623 13.464,3.414 14,3.414 c 0.536,0 1.039,0.208 1.416,0.587 L 17,5.586 c 0.778,0.778 0.778,2.046 0.002,2.827 L 13.414,12 H 26 c 1.103,0 2,0.897 2,2 v 2 c 0,1.103 -0.897,2 -2,2 H 13.414 L 17,21.586 c 0.78,0.779 0.78,2.049 0,2.828 L 15.414,26 C 15.037,26.377 14.535,26.585 14,26.585 z"
   id="path9"
   inkscape:connector-curvature="0"
   style="opacity:0.15" />
	<path
   d="M 26,13 H 11 l 5.293,-5.293 c 0.389,-0.391 0.389,-1.025 0,-1.414 L 14.707,4.707 c -0.389,-0.391 -1.025,-0.391 -1.414,0 l -9.586,9.586 c -0.389,0.389 -0.389,1.023 0,1.414 l 9.586,9.586 c 0.389,0.389 1.025,0.389 1.414,0 l 1.586,-1.586 c 0.389,-0.389 0.389,-1.025 0,-1.414 L 11,17 h 15 c 0.55,0 1,-0.451 1,-1 v -2 c 0,-0.551 -0.45,-1 -1,-1 z"
   id="path11"
   inkscape:connector-curvature="0"
   style="opacity:0.15" />
	<path
   d="M 26,13 H 11 l 5.293,-5.293 c 0.389,-0.391 0.389,-1.025 0,-1.414 L 14.707,4.707 c -0.389,-0.391 -1.025,-0.391 -1.414,0 l -9.586,9.586 c -0.389,0.389 -0.389,1.023 0,1.414 l 9.586,9.586 c 0.389,0.389 1.025,0.389 1.414,0 l 1.586,-1.586 c 0.389,-0.389 0.389,-1.025 0,-1.414 L 11,17 h 15 c 0.55,0 1,-0.451 1,-1 v -2 c 0,-0.551 -0.45,-1 -1,-1 z"
   id="path13"
   inkscape:connector-curvature="0"
   style="fill:#ffffff" />
	<rect
   width="30"
   height="30"
   id="rect15"
   x="0"
   y="0"
   style="fill:none" />
</g>
</svg>