<?xml version="1.0" encoding="UTF-8" standalone="no"?>
<!-- Created with Inkscape (http://www.inkscape.org/) -->

<svg
   xmlns:dc="http://purl.org/dc/elements/1.1/"
   xmlns:cc="http://creativecommons.org/ns#"
   xmlns:rdf="http://www.w3.org/1999/02/22-rdf-syntax-ns#"
   xmlns:svg="http://www.w3.org/2000/svg"
   xmlns="http://www.w3.org/2000/svg"
   xmlns:sodipodi="http://sodipodi.sourceforge.net/DTD/sodipodi-0.dtd"
   xmlns:inkscape="http://www.inkscape.org/namespaces/inkscape"
   width="100"
   height="100"
   id="svg3376"
   version="1.1"
   inkscape:version="0.48.2 r9819"
   sodipodi:docname="u1logo.svg"
   inkscape:export-filename="/home/mkiol/dev/Qt/ubi/u1logo.png"
   inkscape:export-xdpi="90"
   inkscape:export-ydpi="90">
  <defs
     id="defs3378" />
  <sodipodi:namedview
     id="base"
     pagecolor="#ffffff"
     bordercolor="#666666"
     borderopacity="1.0"
     inkscape:pageopacity="0.0"
     inkscape:pageshadow="2"
     inkscape:zoom="1.3289991"
     inkscape:cx="35.872863"
     inkscape:cy="30.20844"
     inkscape:document-units="px"
     inkscape:current-layer="layer1"
     showgrid="false"
     fit-margin-top="0"
     fit-margin-left="0"
     fit-margin-right="0"
     fit-margin-bottom="0"
     inkscape:window-width="737"
     inkscape:window-height="624"
     inkscape:window-x="133"
     inkscape:window-y="55"
     inkscape:window-maximized="0" />
  <metadata
     id="metadata3381">
    <rdf:RDF>
      <cc:Work
         rdf:about="">
        <dc:format>image/svg+xml</dc:format>
        <dc:type
           rdf:resource="http://purl.org/dc/dcmitype/StillImage" />
        <dc:title></dc:title>
      </cc:Work>
    </rdf:RDF>
  </metadata>
  <g
     inkscape:label="Layer 1"
     inkscape:groupmode="layer"
     id="layer1"
     transform="translate(-339.12714,-351.89931)">
    <g
       style="display:inline"
       id="layer4"
       transform="matrix(1.2081861,0,0,1.2081861,331.05979,343.04687)">
      <path
         inkscape:connector-curvature="0"
         d="M 42,18.03125 C 35.884669,18.0622 29.759172,18.01158 23.625,18.09375 A 0.99301653,0.99301653 0 0 0 23.4375,18.125 c -1.196327,0.224784 -1.954294,1.188211 -2.21875,2.09375 -0.257882,0.883027 -0.234989,1.738152 -0.1875,2.4375 0.0012,0.01783 -0.0012,0.04491 0,0.0625 0.08708,11.519873 -0.288543,23.094032 0.4375,34.6875 0.423824,8.392102 4.516023,17.058283 12.28125,21.1875 7.956884,4.44195 17.215869,3.562774 25.5625,2.71875 a 0.99301653,0.99301653 0 0 0 0.03125,0 c 4.642296,-0.574915 9.334547,-1.284704 13.90625,-2.5 a 0.99301653,0.99301653 0 0 0 0.28125,-0.125 C 74.619873,77.9708 74.968255,76.748657 75,75.78125 75.031745,74.813843 74.904046,73.932064 74.96875,73.375 a 0.99301653,0.99301653 0 0 0 0,-0.125 C 74.947944,55.72405 75.010401,38.186148 74.9375,20.65625 a 0.99301653,0.99301653 0 0 0 -0.03125,-0.1875 c -0.23887,-1.238619 -1.25329,-2.006429 -2.1875,-2.25 -0.92272,-0.240575 -1.810826,-0.188602 -2.5,-0.15625 -0.01039,2.5e-5 -0.02086,-2.4e-5 -0.03125,0 -4.842457,0.01105 -9.693358,-0.06482 -14.5625,0 a 0.99301653,0.99301653 0 0 0 -0.1875,0.03125 c -1.196327,0.224784 -1.954294,1.188211 -2.21875,2.09375 -0.257882,0.883027 -0.234989,1.738152 -0.1875,2.4375 0.0012,0.01783 -0.0012,0.04491 0,0.0625 l 0,39.34375 -10.0625,0 C 42.953893,52.567843 43.007958,43.097592 42.9375,33.625 a 0.99301653,0.99301653 0 0 0 -0.03125,-0.1875 c -0.224784,-1.196327 -1.188211,-1.954294 -2.09375,-2.21875 -0.566173,-0.165347 -1.045484,-0.128097 -1.5625,-0.125 0.06685,-0.101261 0.126447,-0.216582 0.1875,-0.34375 0.02357,-0.0393 0.03887,-0.0857 0.0625,-0.125 0.0063,-0.01532 0.02512,-0.01543 0.03125,-0.03125 1.698907,-2.822077 3.57444,-5.597321 5.21875,-8.53125 a 0.99301653,0.99301653 0 0 0 0.09375,-0.21875 C 45.370017,19.99596 43.974109,18.018056 42,18.03125 z"
         id="path3884"
         style="opacity:0.05;fill:#932d00;fill-opacity:1" />
      <path
         d="m 42,19.03125 c -6.124141,0.031 -12.255168,-0.01948 -18.375,0.0625 -1.687428,0.317059 -1.687136,2.202548 -1.59375,3.554244 0.08912,11.567061 -0.273226,23.149817 0.450205,34.701574 0.40928,8.10412 4.349778,16.44828 11.729743,20.372631 7.617668,4.252582 16.673456,3.433122 25.012356,2.58988 C 63.848635,79.739296 68.49973,79.040057 73,77.84375 74.541597,76.828832 73.790737,74.778702 73.96875,73.246111 73.94794,55.717017 74.01038,38.181034 73.9375,20.65625 c -0.340157,-1.763823 -2.324885,-1.661318 -3.715915,-1.597223 -4.864694,0.01148 -9.736191,-0.0612 -14.596585,0.0035 -1.687428,0.317059 -1.687136,2.202548 -1.59375,3.554244 0,13.471502 0,26.943004 0,40.414506 -4.020833,0 -8.041667,0 -12.0625,0 -0.0208,-9.801224 0.04162,-19.609336 -0.03125,-29.40625 -0.317059,-1.687428 -2.202548,-1.687136 -3.554244,-1.59375 -1.652772,0.36748 -0.05624,-1.080365 0.218587,-1.789795 C 40.341719,27.340332 42.225706,24.505322 43.875,21.5625 44.222457,20.342535 43.297707,19.022577 42,19.03125 z"
         inkscape:connector-curvature="0"
         id="path3878"
         style="opacity:0.1;fill:#932d00;fill-opacity:1" />
      <path
         inkscape:connector-curvature="0"
         d="M 42,20.03125 24,20.0625 a 0.96420088,0.96420088 0 0 0 -0.96875,0.96875 l 0,18.96875 c 0,15.787572 0.551107,19.678343 1.1875,22.34375 2.389721,10.008877 9.092836,15.992282 19.4375,17.375 5.708315,0.763002 16.634578,-0.146935 25.375,-1.96875 l 3.15625,-0.65625 a 0.96420088,0.96420088 0 0 0 0.78125,-0.9375 l 0,-55.125 A 0.96420088,0.96420088 0 0 0 72,20.0625 L 56,20.03125 A 0.96420088,0.96420088 0 0 0 55.03125,21 l 0,43.03125 -14.0625,0 0,-30.03125 A 0.96420088,0.96420088 0 0 0 40,33.03125 l -4.28125,0 L 42.8125,21.5 A 0.96420088,0.96420088 0 0 0 42,20.03125 z"
         id="path3874"
         style="opacity:0.15;fill:#932d00;fill-opacity:1" />
      <path
         d="M 24,21.039682 24,40 c 0,15.765571 0.553809,19.539944 1.1704,22.122415 2.318062,9.708749 8.55424,15.274008 18.603912,16.617296 5.440084,0.727149 16.427378,-0.118791 25.06833,-1.919873 L 72,76.171229 72,21.03968 56,21 l 0,44 -16,0 0,-31 -6,0 8,-13 z"
         inkscape:connector-curvature="0"
         id="path3870"
         style="opacity:0.3;fill:#932d00;fill-opacity:1" />
      <path
         d="M 24,20.039682 24,39 c 0,15.765571 0.553809,19.539944 1.1704,22.122415 2.318062,9.708749 8.55424,15.274008 18.603912,16.617296 5.440084,0.727149 16.427378,-0.118791 25.06833,-1.919873 L 72,75.171229 72,20.03968 56,20 l 0,44 -16,0 0,-31 -6,0 8,-13 z"
         inkscape:connector-curvature="0"
         id="path3865"
         style="fill:#ffffff;fill-opacity:1" />
    </g>
  </g>
</svg>
